custom-analysis
version=1
nRows=15
nColumns=42
inDegrees=no

This file contains tibia displacement and acting force.

Units are S.I. units (seconds, meters, Newtons, ...)
Angles are in degrees.

endheader
time	APT	SIT	knee_angle	aACL_R_force	pACL_R_force	aPCL_R_force	pPCL_R_force	aMCL_R_force	mMCL_R_force	pMCL_R_force	aLCL_R_force	mLCL_R_force	pLCL_R_force	aACL_R_length	pACL_R_length	aPCL_R_length	pPCL_R_length	aMCL_R_length	mMCL_R_length	pMCL_R_length	aLCL_R_length	mLCL_R_length	pLCL_R_length	aACL_R_strain	pACL_R_strain	aPCL_R_strain	pPCL_R_strain	aMCL_R_strain	mMCL_R_strain	pMCL_R_strain	aLCL_R_strain	mLCL_R_strain	pLCL_R_strain	femur_lat_meniscii_force_r	femur_lat_meniscii_torque_r	femur_med_meniscii_force_r	femur_med_meniscii_torque_r	femur_lat_tibia_force_r	femur_lat_tibia_torque_r	femur_med_tibia_force_r	femur_med_tibia_torque_r
      0.16736303	      0.00639007	      0.03318756	    100.35697237	      0.00000000	      0.00000000	   1462.82251248	    993.80864665	      2.94779776	      0.00000000	      0.00000000	      0.00000000	      0.00000000	      0.00000000	      0.02785324	      0.02428701	      0.03990585	      0.03665994	      0.06035561	      0.05888730	      0.05652761	      0.04968506	      0.04489019	      0.04178846	     -0.10166766	     -0.04226131	      0.28334024	      0.21843215	      0.04012977	     -0.01515556	     -0.06916729	     -0.11240538	     -0.20292431	     -0.20163735	    421.59806204	    162.67104509	    121.68712435	     43.54979037	      1.08623260	      0.04034615	    903.69184341	     21.31430043
      0.16823769	      0.00619246	      0.03344148	    101.13374096	      0.00000000	      0.00000000	   1468.31337456	   1000.41394818	      3.68671703	      0.00000000	      0.00000000	      0.00000000	      0.00000000	      0.00000000	      0.02782297	      0.02433629	      0.03993961	      0.03671059	      0.06034629	      0.05890166	      0.05660430	      0.04959083	      0.04482378	      0.04178413	     -0.10264397	     -0.04031779	      0.28442588	      0.22011555	      0.03996915	     -0.01491536	     -0.06790449	     -0.11408876	     -0.20410346	     -0.20171996	    437.69921774	    169.70708239	    122.32538326	     42.82536359	      2.09511389	      0.07783791	    861.64263074	     20.35753525
      0.16911235	      0.00599182	      0.03369200	    101.91274972	      0.00000000	      0.00000000	   1473.74040345	   1007.77633052	      1.80360211	      0.00000000	      0.00000000	      0.00000000	      0.00000000	      0.00000000	      0.02779714	      0.02439037	      0.03997253	      0.03676088	      0.06033680	      0.05891718	      0.05668358	      0.04949756	      0.04475915	      0.04178227	     -0.10347721	     -0.03818533	      0.28548460	      0.22178685	      0.03980564	     -0.01465580	     -0.06659887	     -0.11575491	     -0.20525099	     -0.20175556	    434.83974686	    167.23433199	    119.48096078	     42.63233734	      3.00326796	      0.11159087	    844.41924167	     20.06546637
      0.16919296	      0.00597297	      0.03371497	    101.98462520	      0.00000000	      0.00000000	   1474.28171554	   1008.59834563	      1.62162941	      0.00000000	      0.00000000	      0.00000000	      0.00000000	      0.00000000	      0.02779486	      0.02439555	      0.03997554	      0.03676553	      0.06033582	      0.05891860	      0.05669097	      0.04948899	      0.04475327	      0.04178225	     -0.10355060	     -0.03798086	      0.28558145	      0.22194161	      0.03978874	     -0.01463207	     -0.06647718	     -0.11590815	     -0.20535534	     -0.20175596	    437.76137479	    168.13561702	    118.37312734	     42.10359934	      3.08945992	      0.11478337	    842.89772596	     20.03158223
      0.16920221	      0.00597080	      0.03371761	    101.99287009	      0.00000000	      0.00000000	   1474.74303930	   1009.06254013	      4.67254143	      0.00000000	      0.00000000	      0.00000000	      0.00000000	      0.00000000	      0.02779460	      0.02439615	      0.03997589	      0.03676607	      0.06033571	      0.05891876	      0.05669182	      0.04948800	      0.04475260	      0.04178225	     -0.10355900	     -0.03795733	      0.28559257	      0.22195939	      0.03978678	     -0.01462935	     -0.06646320	     -0.11592572	     -0.20536729	     -0.20175597	    408.16334945	    156.37362887	    105.79918861	     37.24025015	      2.99943132	      0.11148814	    805.78983750	     19.18761296
      0.16921146	      0.00596878	      0.03372015	    102.00114877	      0.00000000	      0.00000000	   1476.35192923	   1010.49206679	     16.83756290	      0.00000000	      0.00000000	      0.00000000	      0.00000000	      0.00000000	      0.02779447	      0.02439683	      0.03997626	      0.03676662	      0.06033572	      0.05891902	      0.05669275	      0.04948710	      0.04475199	      0.04178229	     -0.10356310	     -0.03793060	      0.28560471	      0.22197753	      0.03978697	     -0.01462495	     -0.06644791	     -0.11594189	     -0.20537808	     -0.20175522	    291.87681213	    110.19024179	     63.12764300	     20.19787896	      2.66056219	      0.09911075	    665.74416577	     15.95698713
      0.16923859	      0.00596341	      0.03372724	    102.02556382	      0.00000000	      0.00000000	   1477.59991067	   1011.08482989	     26.96792453	      0.00000000	      0.00000000	      0.00000000	      0.00000000	      0.00000000	      0.02779459	      0.02439911	      0.03997748	      0.03676825	      0.06033620	      0.05892015	      0.05669576	      0.04948472	      0.04475044	      0.04178254	     -0.10355940	     -0.03784059	      0.28564372	      0.22203169	      0.03979527	     -0.01460603	     -0.06639840	     -0.11598439	     -0.20540570	     -0.20175043	    198.41596633	     72.77134138	     36.06183885	      9.02880524	      2.36209966	      0.08814969	    551.31132026	     13.31391518
      0.16926572	      0.00595822	      0.03373424	    102.05002324	      0.00000000	      0.00000000	   1477.40851775	   1010.23620812	     26.37807910	      0.00000000	      0.00000000	      0.00000000	      0.00000000	      0.00000000	      0.02779486	      0.02440148	      0.03997870	      0.03676986	      0.06033681	      0.05892138	      0.05669883	      0.04948241	      0.04474894	      0.04178281	     -0.10355076	     -0.03774708	      0.28568301	      0.22208530	      0.03980571	     -0.01458555	     -0.06634779	     -0.11602570	     -0.20543239	     -0.20174520	    202.98944043	     74.47597646	     35.91358328	      8.92061459	      2.35828265	      0.08798581	    559.45643724	     13.52051380
      0.16931241	      0.00594924	      0.03374638	    102.09211167	      0.00000000	      0.00000000	   1476.91564816	   1008.72455452	     23.87683619	      0.00000000	      0.00000000	      0.00000000	      0.00000000	      0.00000000	      0.02779525	      0.02440551	      0.03998072	      0.03677256	      0.06033774	      0.05892338	      0.05670402	      0.04947833	      0.04474626	      0.04178321	     -0.10353802	     -0.03758815	      0.28574793	      0.22217505	      0.03982180	     -0.01455204	     -0.06626229	     -0.11609850	     -0.20547989	     -0.20173760	    224.27281901	     82.76261840	     39.06409632	     10.12261373	      2.39579856	      0.08931044	    589.85555302	     14.25422596
      0.16942535	      0.00592713	      0.03377622	    102.19388986	      0.00000000	      0.00000000	   1476.18668332	   1006.30774303	     19.06356207	      0.00000000	      0.00000000	      0.00000000	      0.00000000	      0.00000000	      0.02779579	      0.02441497	      0.03998522	      0.03677877	      0.06033941	      0.05892769	      0.05671610	      0.04946799	      0.04473936	      0.04178384	     -0.10352059	     -0.03721508	      0.28589267	      0.22238134	      0.03985055	     -0.01447999	     -0.06606349	     -0.11628318	     -0.20560241	     -0.20172556	    282.26307188	    107.91414875	     46.84740753	     12.98179487	      2.44764694	      0.09104529	    645.21343539	     15.57879089
      0.16963020	      0.00588597	      0.03383148	    102.37839883	      0.00000000	      0.00000000	   1475.80548983	   1004.28643298	     13.70709431	      0.00000000	      0.00000000	      0.00000000	      0.00000000	      0.00000000	      0.02779575	      0.02443146	      0.03999245	      0.03678924	      0.06034096	      0.05893418	      0.05673681	      0.04944809	      0.04472585	      0.04178425	     -0.10352193	     -0.03656496	      0.28612525	      0.22272959	      0.03987728	     -0.01437152	     -0.06572241	     -0.11663870	     -0.20584237	     -0.20171770	    325.20453435	    124.64989664	     51.01910506	     17.40090107	      2.55703371	      0.09526592	    700.88171176	     16.90560081
      0.17006398	      0.00579530	      0.03395057	    102.76901138	      0.00000000	      0.00000000	   1477.74379916	   1007.00267682	      9.97237017	      0.00000000	      0.00000000	      0.00000000	      0.00000000	      0.00000000	      0.02779311	      0.02446499	      0.04000632	      0.03681042	      0.06034115	      0.05894534	      0.05677864	      0.04940401	      0.04469583	      0.04178460	     -0.10360705	     -0.03524265	      0.28657133	      0.22343330	      0.03988056	     -0.01418475	     -0.06503353	     -0.11742614	     -0.20637525	     -0.20171094	    354.14893228	    134.97545395	     59.75798313	     22.27153895	      2.85646314	      0.10626911	    720.66330648	     17.36645743
      0.17011784	      0.00578379	      0.03396539	    102.81753296	      0.00000000	      0.00000000	   1477.94149086	   1007.36524971	      8.99009507	      0.00000000	      0.00000000	      0.00000000	      0.00000000	      0.00000000	      0.02779267	      0.02446912	      0.04000803	      0.03681306	      0.06034106	      0.05894666	      0.05678381	      0.04939851	      0.04469213	      0.04178473	     -0.10362135	     -0.03507979	      0.28662632	      0.22352109	      0.03987906	     -0.01416276	     -0.06494850	     -0.11752438	     -0.20644111	     -0.20170855	    364.35104044	    138.76548003	     61.34594773	     22.80535182	      2.90731756	      0.10832879	    727.49480227	     17.51775949
      0.17031420	      0.00574129	      0.03401955	    102.99439997	      0.00000000	      0.00000000	   1478.99468018	   1009.14817937	      7.47483946	      0.00000000	      0.00000000	      0.00000000	      0.00000000	      0.00000000	      0.02779076	      0.02448408	      0.04001424	      0.03682273	      0.06034046	      0.05895126	      0.05680254	      0.04937838	      0.04467861	      0.04178533	     -0.10368303	     -0.03449003	      0.28682601	      0.22384243	      0.03986868	     -0.01408577	     -0.06464006	     -0.11788399	     -0.20668109	     -0.20169715	    372.66493119	    141.68478457	     63.26044470	     22.98921643	      3.06219069	      0.11418299	    735.36398612	     17.69194830
      0.17056324	      0.00568638	      0.03408823	    103.21876505	      0.00000000	      0.00000000	   1480.69437612	   1011.98600518	      7.45774178	      0.00000000	      0.00000000	      0.00000000	      0.00000000	      0.00000000	      0.02778800	      0.02450305	      0.04002217	      0.03683514	      0.06033936	      0.05895693	      0.05682629	      0.04935288	      0.04466166	      0.04178652	     -0.10377202	     -0.03374205	      0.28708094	      0.22425492	      0.03984975	     -0.01399096	     -0.06424890	     -0.11833968	     -0.20698202	     -0.20167431	    382.53863236	    146.55844249	     60.85130316	     21.09777321	      3.21056684	      0.11967406	    724.71198483	     17.43639740
